<svg xmlns="http://www.w3.org/2000/svg" xmlns:xlink="http://www.w3.org/1999/xlink" fill="none" version="1.1" width="937" height="542" viewBox="0 0 937 542"><defs><clipPath id="master_svg0_134_207"><rect x="0" y="0" width="937" height="542" rx="0"/></clipPath></defs><g clip-path="url(#master_svg0_134_207)"><path d="M755.10858578125,151L754.9000737812501,151.13917077L754.62205078125,151.27834153L752.39786678125,152.5308785L750.66022678125,153.505074L744.89124478125,156.7060022L723.13598898125,168.744274L722.51046333125,169.092201L722.02392578125,169.370543L722.02392578125,388.63409L753.78801578125,388.63409L753.78801578125,354.95477L784.92657878125,354.95477L785.13508178125,354.32851L785.34358978125,353.42389000000003L792.29415878125,330.94783L799.17520178125,353.42389000000003L799.45323978125,354.32851L799.66174278125,354.95477L859.64512578125,354.95477L859.85362578125,354.32851L860.0621357812499,353.42389000000003L867.0126957812499,330.94783L873.89373578125,353.42389000000003L874.17178578125,354.32851L874.38029578125,354.95477L905.51884578125,354.95477L905.51884578125,364.97508L877.43855578125,364.97508L877.43855578125,391L913.85949578125,391L914.06802578125,390.86084L914.27653578125,390.72166000000004L918.23838578125,388.49493L918.51637578125,388.35576000000003L936.17076578125,378.61379999999997L936.79629578125,378.26587L937.28288578125,377.98752L937.28288578125,151L755.10858578125,151ZM764.90891278125,314.31689L753.78801578125,350.57088999999996L753.78801578125,205.554943L764.90891278125,241.739342L776.02980778125,277.99333L764.90891278125,314.31689ZM829.61867578125,346.88286L808.48894478125,277.99333L829.61867578125,209.173382L850.74839578125,277.99333L829.61867578125,346.88286ZM905.51884578125,350.50131L894.39788578125,314.24730999999997L883.27700578125,277.99333L894.39788578125,241.739342L905.51884578125,205.554943L905.51884578125,350.50131ZM905.51884578125,202.841118L873.82427578125,202.841118L873.61576578125,203.467388L873.4072757812501,204.302414L867.01275578125,225.10844400000002L860.61825578125,204.302414L860.34020578125,203.467388L860.20123578125,202.841118L799.10573578125,202.841118L798.89723178125,203.467388L798.68872078125,204.302414L792.29421278125,225.10844400000002L785.89970378125,204.302414L785.62167778125,203.467388L785.41316978125,202.841118L753.78806878125,202.841118L753.78806878125,182.800526L905.51895578125,182.800526L905.51884578125,202.841118Z" fill-rule="evenodd" fill="#FFFFFF" fill-opacity="1" style="mix-blend-mode:passthrough"/><path d="M594.480381171875,195.95220212304687L594.480381171875,153.22677612304688L562.716293171875,153.22677612304688L562.716293171875,195.95220212304687L499.952692171875,195.95220212304687C499.952692171875,195.95220212304687,499.674663171875,196.23054112304686,499.674663171875,196.23054112304686L497.867500171875,197.20473812304687L484.591893171875,204.5807881230469L483.966368171875,204.92871512304689L483.479830171875,205.20705812304686L470.343264271875,212.44393912304687L469.717738691875,212.79187012304686L469.231201171875,213.07020912304688L469.231201171875,319.39669612304687L562.785820171875,319.39669612304687L562.785820171875,391.0000461230469L594.549901171875,391.0000461230469L594.549901171875,319.39669612304687L688.382551171875,319.39669612304687L688.382551171875,195.95220212304687L594.549901171875,195.95220212304687L594.480381171875,195.95220212304687ZM562.716293171875,293.0933961230469L500.925768171875,293.0933961230469L500.925768171875,222.18589012304687L562.716293171875,222.18589012304687L562.716293171875,293.0933961230469ZM656.548931171875,293.0933961230469L594.480381171875,293.0933961230469L594.480381171875,222.18589012304687L656.548931171875,222.18589012304687L656.548931171875,293.0933961230469Z" fill-rule="evenodd" fill="#FFFFFF" fill-opacity="1" style="mix-blend-mode:passthrough"/><path d="M144.709716796875,151L211.018127796875,151L211.018127796875,390.93039999999996L144.709716796875,390.93039999999996L144.709716796875,151Z" fill-rule="evenodd" fill="#FFFFFF" fill-opacity="1" style="mix-blend-mode:passthrough"/><path d="M435.73173289062504,151L322.437512890625,390.93039999999996L249.178529890625,390.93039999999996L249.178529890625,255.23891C249.178529890625,255.23891,217.761962890625,321.69293,217.761962890625,321.69293L217.761962890625,280.22006C217.761962890625,280.22006,278.857448890625,151,278.857448890625,151L305.895156890625,151L305.895156890625,293.16295L373.037632890625,151L435.73173289062504,151Z" fill-rule="evenodd" fill="#FFFFFF" fill-opacity="1" style="mix-blend-mode:passthrough"/><path d="M137.48222,151L137.48222,206.320381C137.48222,206.320381,58.732288,372.97737,58.732288,372.97737L137.89925,372.97737L137.89925,390.93039999999996C137.89925,390.93039999999996,0,390.93039999999996,0,390.93039999999996L0,364.27921000000003C0,364.27921000000003,100.85273,151,100.85273,151L137.48222,151Z" fill-rule="evenodd" fill="#FFFFFF" fill-opacity="1" style="mix-blend-mode:passthrough"/><path d="M30.374366296875,151L93.137977296875,151L62.903007296875,214.740211L0.139404296875,214.740211L30.374366296875,151Z" fill-rule="evenodd" fill="#FFFFFF" fill-opacity="1" style="mix-blend-mode:passthrough"/></g></svg>